<svg xmlns="http://www.w3.org/2000/svg" enable-background="new 0 0 512 512" height="512" width="512" style=""><rect id="backgroundrect" width="100%" height="100%" x="0" y="0" fill="none" stroke="none"/><g class="currentLayer" style=""><title>Layer 1</title><path d="m277.948,193.31787969207764 c-13.319,0 -24.154,10.835 -24.154,24.154 v61.707 c0,13.319 10.835,24.154 24.154,24.154 s24.155,-10.835 24.155,-24.154 v-61.707 c0,-13.318 -10.836,-24.154 -24.155,-24.154 z" id="svg_1" class=""/><path d="m467.02 227.411c4.423-11.458 6.728-23.732 6.728-36.091 0-48.944-35.618-90.315-82.851-98.497-18.635-55.142-70.498-92.816-129.545-92.816-29.897 0-58.298 9.476-82.131 27.403-19.216 14.455-34.438 34.011-43.814 56.029-6.79-1.237-13.7-1.861-20.661-1.861-63.271.001-114.746 51.475-114.746 114.746 0 30.375 12.108 59.318 33.11 80.621-20.784 18.775-33.11 45.78-33.11 74.278 0 55.132 44.854 99.986 99.986 99.986 11.179 0 22.271-1.887 32.77-5.527 16.982 39.782 56.197 66.312 100.664 66.312 23.761 0 46.365-7.486 65.369-21.649 14.06-10.478 25.207-23.87 32.814-39.295 15.115 5.784 31.296 8.797 47.574 8.797 73.24 0 132.824-59.584 132.824-132.824-.001-38.141-16.617-74.535-44.981-99.612zm-307.049 75.171c13.319 0 24.155-10.835 24.155-24.154h30c0 29.861-24.294 54.154-54.155 54.154s-54.154-24.293-54.154-54.154v-61.707c0-29.861 24.293-54.154 54.154-54.154s54.155 24.293 54.155 54.154h-30c0-13.319-10.836-24.154-24.155-24.154s-24.154 10.835-24.154 24.154v61.707c0 13.318 10.835 24.154 24.154 24.154zm172.132-24.155c0 29.861-24.294 54.154-54.155 54.154s-54.154-24.293-54.154-54.154v-61.707c0-29.861 24.293-54.154 54.154-54.154s54.155 24.293 54.155 54.154zm94.962 67.003v30h-82.97v-15c0-11.727 5.769-22.695 15.43-29.34l35.712-24.559c2.845-1.957 4.544-5.187 4.544-8.64 0-7.082-5.761-12.843-12.843-12.843s-12.843 5.761-12.843 12.843v7.158h-30v-7.158c0-23.624 19.219-42.843 42.843-42.843s42.843 19.219 42.843 42.843c0 13.333-6.559 25.804-17.545 33.359l-20.619 14.18z" id="svg_2" class="selected"/><rect fill="#000000" stroke="#000000" stroke-width="2" stroke-linejoin="round" stroke-dashoffset="" fill-rule="nonzero" id="svg_3" x="341.48120307922363" y="251.2556390762329" width="102" height="141" style="color: rgb(0, 0, 0);" class="" filter="" opacity="1" stroke-dasharray="none" stroke-opacity="1"/></g><defs><filter id="f001" xmlns:inkscape="http://www.inkscape.org/namespaces/inkscape" inkscape:label="Matte jelly" x="0" y="0" width="1" height="1" inkscape:menu="ABCs" inkscape:menu-tooltip="Bulging, matte jelly covering" color-interpolation-filters="sRGB">
            <feColorMatrix values="1 0 0 0 0 0 1 0 0 0 0 0 1 0 0 0 0 0 0.85 0" result="result0" in="SourceGraphic"/>
            <feGaussianBlur in="SourceAlpha" stdDeviation="7"/>
            <feSpecularLighting surfaceScale="5" specularConstant=".9" specularExponent="25">
                <feDistantLight elevation="60" azimuth="225"/>
            </feSpecularLighting>
            <feComposite operator="atop" in2="result0"/>
        </filter></defs></svg>