<svg xmlns:dc="http://purl.org/dc/elements/1.1/" xmlns:cc="http://creativecommons.org/ns#" xmlns:rdf="http://www.w3.org/1999/02/22-rdf-syntax-ns#" xmlns:svg="http://www.w3.org/2000/svg" xmlns="http://www.w3.org/2000/svg" xmlns:sodipodi="http://sodipodi.sourceforge.net/DTD/sodipodi-0.dtd" xmlns:inkscape="http://www.inkscape.org/namespaces/inkscape" version="1.1" width="100" height="125" style=""><rect id="backgroundrect" width="100%" height="100%" x="0" y="0" fill="none" stroke="none"/><g class="currentLayer" style=""><title>Layer 1</title><g id="svg_1" class="selected"><path style="font-size:medium;font-style:normal;font-variant:normal;font-weight:normal;font-stretch:normal;text-indent:0;text-align:start;text-decoration:none;line-height:normal;letter-spacing:normal;word-spacing:normal;text-transform:none;direction:ltr;block-progression:tb;writing-mode:lr-tb;text-anchor:start;baseline-shift:baseline;opacity:1;color:#000000;fill:#000000;fill-opacity:1;stroke:none;stroke-width:2;marker:none;visibility:visible;display:inline;overflow:visible;enable-background:accumulate;font-family:Sans;-inkscape-font-specification:Sans" d="M67,28.886178970336914 C60.460746,28.886178970336914 54.514176,30.69832897033689 50.15625,33.729928970336914 C45.798324,36.76152897033694 43,41.07945897033687 43,45.886178970336914 C43,51.09777897033689 45.774901,55.30067897033689 50.875,58.323678970336914 L49.03125,66.66742897033691 A1.0001,1.0001 0 0 0 50.46875,67.76117897033691 L61.15625,61.948678970336914 C63.149364,62.4318889703369 64.499944,62.886178970336914 67,62.886178970336914 C73.539254,62.886178970336914 79.485824,61.04277897033694 83.84375,58.011178970336914 C88.201676,54.97957897033689 91,50.692898970336955 91,45.886178970336914 C91,41.07945897033687 88.201676,36.76152897033694 83.84375,33.729928970336914 C79.485824,30.69832897033689 73.539254,28.886178970336914 67,28.886178970336914 zM67,30.886178970336914 C73.163295,30.886178970336914 78.721063,32.626918970336874 82.6875,35.386178970336914 C86.653937,38.145438970336954 89,41.85633897033688 89,45.886178970336914 C89,49.91601897033695 86.653937,53.595668970336874 82.6875,56.354928970336914 C78.721063,59.114188970336954 73.163295,60.886178970336914 67,60.886178970336914 C64.573392,60.886178970336914 63.563429,60.43104897033686 61.21875,59.886178970336914 A1.0001,1.0001 0 0 0 60.53125,59.979928970336914 L51.4375,64.91742897033691 L52.96875,58.104928970336914 A1.0001,1.0001 0 0 0 52.46875,57.011178970336914 C47.325612,54.19748897033696 45,50.64741897033696 45,45.886178970336914 C45,41.85633897033688 47.346063,38.145438970336954 51.3125,35.386178970336914 C55.278937,32.626918970336874 60.836705,30.886178970336914 67,30.886178970336914 zM53.8125,40.886178970336914 A1.0043849,1.0043849 0 0 0 54,42.886178970336914 L80,42.886178970336914 A1.0001,1.0001 0 1 0 80,40.886178970336914 L54,40.886178970336914 A1.0001,1.0001 0 0 0 53.8125,40.886178970336914 zM53.8125,48.886178970336914 A1.0043849,1.0043849 0 0 0 54,50.886178970336914 L80,50.886178970336914 A1.0001,1.0001 0 1 0 80,48.886178970336914 L54,48.886178970336914 A1.0001,1.0001 0 0 0 53.8125,48.886178970336914 zM7.8125,66.88617897033691 A1.0001,1.0001 0 0 0 7,67.88617897033691 L7,103.88617897033691 A1.0001,1.0001 0 0 0 8,104.88617897033691 L22,104.88617897033691 A1.0001,1.0001 0 0 0 23,103.88617897033691 L23,95.79242897033691 C26.67169,98.39075697033695 29.618785,100.93731697033695 33.25,102.97992897033691 C37.379313,105.30262897033685 42.366669,106.88607897033694 50,106.88617897033691 C57.877825,106.88617897033691 67.439117,102.54507897033693 75.125,98.26117897033691 C82.775226,93.99707897033693 88.509049,89.73817897033689 88.5625,89.69867897033691 C88.562749,89.69847897033696 88.59375,89.66742897033691 88.59375,89.66742897033691 C90.091716,88.66762897033686 91.183917,87.87867897033698 91.9375,86.82367897033691 C92.698646,85.7580789703369 93,84.49737897033697 93,82.88617897033691 C93,81.63617897033691 92.491642,80.5764289703369 91.75,79.85492897033691 C91.008358,79.13332897033695 90.06519,78.69712897033696 89.15625,78.41742897033691 C87.33837,77.85782897033687 85.5,77.88617897033691 85,77.88617897033691 C82.833558,77.88617897033691 80.321623,78.95472897033687 78.21875,79.97992897033691 C76.295398,80.91752897033689 75.0298,81.67037897033697 74.78125,81.82367897033691 C74.263161,79.03927897033691 71.931519,76.88617897033691 69,76.88617897033691 L50.375,76.88617897033691 C45.002398,71.86033497033691 35.056092,70.93282197033693 23,70.88617897033691 L23,67.88617897033691 A1.0001,1.0001 0 0 0 22,66.88617897033691 L8,66.88617897033691 A1.0001,1.0001 0 0 0 7.8125,66.88617897033691 zM9,68.88617897033691 L21,68.88617897033691 L21,71.79242897033691 A1.0001,1.0001 0 0 0 21,71.88617897033691 L21,93.88617897033691 A1.0001,1.0001 0 0 0 21,94.01117897033691 L21,102.88617897033691 L9,102.88617897033691 L9,68.88617897033691 zM23,72.91742897033691 C35.15591,72.98142897033688 44.846708,74.13917897033696 49.28125,78.57367897033691 A1.0001,1.0001 0 0 0 50,78.88617897033691 L69,78.88617897033691 C71.233297,78.88617897033691 73,80.65287897033693 73,82.88617897033691 C73,85.11957897033687 71.233297,86.88617897033691 69,86.88617897033691 L40,86.88617897033691 A1.0001,1.0001 0 1 0 40,88.88617897033691 L69,88.88617897033691 C71.96101,88.88617897033691 74.328596,86.68072897033687 74.8125,83.85492897033691 A1.0001,1.0001 0 0 0 75.53125,83.72992897033691 C75.53125,83.72992897033691 77.094158,82.73597897033687 79.09375,81.76117897033691 C81.093342,80.78637897033695 83.576342,79.88617897033691 85,79.88617897033691 C85.5,79.88617897033691 87.161625,79.88617897033691 88.59375,80.32367897033691 C89.309812,80.54397897033687 89.92914,80.88902897033688 90.34375,81.29242897033691 C90.75836,81.69592897033692 91,82.13617897033691 91,82.88617897033691 C91,84.27507897033695 90.801354,84.98302897033693 90.3125,85.66742897033691 C89.823646,86.35192897033687 88.916165,87.05672897033696 87.4375,88.04242897033691 A1.0001,1.0001 0 0 0 87.40625,88.07367897033691 C87.40625,88.07367897033691 81.689092,92.29507897033693 74.125,96.51117897033691 C66.560908,100.7272789703369 57.122275,104.88617897033691 50,104.88617897033691 C42.633331,104.88617897033691 38.120687,103.43837897033688 34.25,101.26117897033691 C30.51734,99.1615789703369 27.319215,96.2884289703369 23,93.35492897033691 L23,72.91742897033691 z" id="svg_2"/></g></g></svg>