<?xml version="1.0" standalone="no"?>
<!DOCTYPE svg PUBLIC "-//W3C//DTD SVG 20010904//EN"
 "http://www.w3.org/TR/2001/REC-SVG-20010904/DTD/svg10.dtd">
<svg version="1.0" xmlns="http://www.w3.org/2000/svg"
 width="225.000000pt" height="225.000000pt" viewBox="0 0 225.000000 225.000000"
 preserveAspectRatio="xMidYMid meet">
<metadata>
Created by potrace 1.15, written by Peter Selinger 2001-2017
</metadata>
<g transform="translate(0.000000,225.000000) scale(0.100000,-0.100000)"
fill="#000000" stroke="none">
<path d="M1100 1762 c-117 -31 -214 -102 -276 -202 -35 -56 -36 -58 -90 -64
-142 -16 -243 -111 -259 -241 -7 -49 -8 -50 -61 -74 -110 -48 -194 -158 -213
-278 -26 -168 72 -342 229 -406 54 -22 62 -22 615 -25 381 -2 581 1 625 8 282
49 455 348 356 619 -48 131 -162 240 -293 281 -55 17 -56 18 -73 73 -25 79
-60 134 -124 195 -87 82 -215 133 -330 131 -22 0 -70 -8 -106 -17z m244 -88
c131 -46 226 -165 251 -316 6 -39 10 -41 80 -53 59 -10 149 -62 196 -112 58
-63 91 -142 97 -228 10 -162 -70 -298 -218 -369 l-65 -31 -584 -3 c-673 -3
-649 -6 -736 82 -60 60 -85 122 -84 205 2 139 95 247 239 274 54 10 59 14 52
32 -15 41 -6 121 17 158 46 75 136 111 213 86 l45 -15 12 45 c53 198 284 315
485 245z"/>
<path d="M814 1191 c-45 -27 -69 -94 -55 -149 14 -50 59 -90 112 -98 65 -11
89 -52 51 -87 -26 -24 -47 -21 -70 8 -16 19 -29 25 -61 25 -40 0 -41 -1 -35
-27 11 -46 41 -80 85 -97 132 -53 245 104 153 213 -23 28 -50 41 -116 55 -36
8 -48 49 -23 76 24 27 50 25 73 -5 16 -19 29 -25 61 -25 40 0 41 1 35 28 -17
66 -64 102 -136 102 -25 0 -56 -8 -74 -19z"/>
<path d="M1182 1185 c-47 -40 -54 -69 -50 -218 3 -135 3 -136 33 -167 58 -61
142 -61 201 1 l29 30 0 155 0 156 -37 34 c-33 30 -44 34 -92 34 -43 0 -60 -5
-84 -25z m114 -69 c16 -12 20 -29 22 -111 2 -53 1 -107 -2 -120 -9 -34 -42
-50 -72 -36 -23 10 -24 14 -24 135 0 109 2 126 18 135 23 14 35 13 58 -3z"/>
<path d="M1500 985 c0 -45 0 -45 35 -45 65 0 82 -69 24 -101 -28 -15 -59 -85
-59 -136 l0 -43 90 0 90 0 0 45 0 45 -41 0 -42 0 42 45 c36 39 41 50 41 92 0
85 -59 143 -144 143 -36 0 -36 0 -36 -45z"/>
</g>
</svg>
