<svg id="Capa_1" enable-background="new 0 0 512 512" height="512" viewBox="0 0 512 512" width="512" xmlns="http://www.w3.org/2000/svg"><path d="m277.948 192.566c-13.319 0-24.154 10.835-24.154 24.154v61.707c0 13.319 10.835 24.154 24.154 24.154s24.155-10.835 24.155-24.154v-61.707c0-13.318-10.836-24.154-24.155-24.154z"/><path d="m467.02 227.411c4.423-11.458 6.728-23.732 6.728-36.091 0-48.944-35.618-90.315-82.851-98.497-18.635-55.142-70.498-92.816-129.545-92.816-29.897 0-58.298 9.476-82.131 27.403-19.216 14.455-34.438 34.011-43.814 56.029-6.79-1.237-13.7-1.861-20.661-1.861-63.271.001-114.746 51.475-114.746 114.746 0 30.375 12.108 59.318 33.11 80.621-20.784 18.775-33.11 45.78-33.11 74.278 0 55.132 44.854 99.986 99.986 99.986 11.179 0 22.271-1.887 32.77-5.527 16.982 39.782 56.197 66.312 100.664 66.312 23.761 0 46.365-7.486 65.369-21.649 14.06-10.478 25.207-23.87 32.814-39.295 15.115 5.784 31.296 8.797 47.574 8.797 73.24 0 132.824-59.584 132.824-132.824-.001-38.141-16.617-74.535-44.981-99.612zm-307.049 75.171c13.319 0 24.155-10.835 24.155-24.154h30c0 29.861-24.294 54.154-54.155 54.154s-54.154-24.293-54.154-54.154v-61.707c0-29.861 24.293-54.154 54.154-54.154s54.155 24.293 54.155 54.154h-30c0-13.319-10.836-24.154-24.155-24.154s-24.154 10.835-24.154 24.154v61.707c0 13.318 10.835 24.154 24.154 24.154zm172.132-24.155c0 29.861-24.294 54.154-54.155 54.154s-54.154-24.293-54.154-54.154v-61.707c0-29.861 24.293-54.154 54.154-54.154s54.155 24.293 54.155 54.154zm94.962 67.003v30h-82.97v-15c0-11.727 5.769-22.695 15.43-29.34l35.712-24.559c2.845-1.957 4.544-5.187 4.544-8.64 0-7.082-5.761-12.843-12.843-12.843s-12.843 5.761-12.843 12.843v7.158h-30v-7.158c0-23.624 19.219-42.843 42.843-42.843s42.843 19.219 42.843 42.843c0 13.333-6.559 25.804-17.545 33.359l-20.619 14.18z"/></svg>